PathFileType	4	(X/Y/Z)	Patient4_TMGait_0pt4_03_right_14.trc.trc
DataRate	CameraRate	NumFrames	NumMarkers	Units	OrigDataRate	OrigDataStartFrame	OrigNumFrames
74.074074074074	74.074074074074	4	33	mm	74.074074074074	18	       141
Frame#	Time	Sacral			L.Shoulder			Chest			R.Shoulder			Neck			R.ASIS			L.ASIS			R.Thigh.Superior			R.Thigh.Lateral			R.Thigh.Inferior			R.Patella			L.Thigh.Superior			L.Thigh.Lateral			L.Thigh.Inferior			L.Patella			L.Shank.Superior			L.Shank.Lateral			L.Shank.Inferior			R.Shank.Superior			R.Shank.Lateral			R.Shank.Inferior			R.Heel			R.Midfoot.Superior			R.Midfoot.Lateral			R.Toe			L.Heel			L.Midfoot.Lateral			L.Midfoot.Superior			L.Toe			L.Elbow			L.Wrist			R.Elbow			R.Wrist			
		X1	Y1	Z1	X2	Y2	Z2	X3	Y3	Z3	X4	Y4	Z4	X5	Y5	Z5	X6	Y6	Z6	X7	Y7	Z7	X8	Y8	Z8	X9	Y9	Z9	X10	Y10	Z10	X11	Y11	Z11	X12	Y12	Z12	X13	Y13	Z13	X14	Y14	Z14	X15	Y15	Z15	X16	Y16	Z16	X17	Y17	Z17	X18	Y18	Z18	X19	Y19	Z19	X20	Y20	Z20	X21	Y21	Z21	X22	Y22	Z22	X23	Y23	Z23	X24	Y24	Z24	X25	Y25	Z25	X26	Y26	Z26	X27	Y27	Z27	X28	Y28	Z28	X29	Y29	Z29	X30	Y30	Z30	X31	Y31	Z31	X32	Y32	Z32	X33	Y33	Z33	

18	17.619500000000	805.085760770822	1010.379944305860	434.168169678174	1012.677644373255	1432.081246871351	255.641025680819	1100.703548501858	1361.039470809531	424.122640123590	1008.407512717494	1438.321332731988	591.889017716246	986.900204084738	1496.263422688715	411.962136985596	1025.711754435029	944.501496004186	567.478326866297	1030.856248226878	964.508831757699	290.301719194605	1094.868967983732	763.899226775212	540.366812892539	1044.021482846529	646.700687139604	614.281430230999	1129.789029273241	605.277212008506	534.297427969564	1158.636700188804	522.017356281971	550.385962676147	1050.616476946596	740.052467084259	322.261916868884	950.336387483233	637.145466782859	249.885623615287	1016.643519521503	549.514731966614	317.015541181402	1006.613704107549	482.349072059887	324.676421853307	977.639275375863	412.709506853391	313.281491863194	882.672638164976	304.570188760777	260.112026451310	924.399590206257	189.873881872726	330.383706698622	1136.884300641543	432.276018437164	562.455962674705	1078.134801310134	324.874271544241	631.686788946822	1135.960272845510	232.090294052111	577.916394668449	1027.578661695086	50.888971062301	559.533469170597	1195.982444173878	117.231619589559	590.636317206748	1114.913296314344	46.866385133989	629.612157127753	1319.213493816770	74.913988419747	612.423109858753	790.051291925004	38.365710996847	372.559099869137	859.434306807110	35.222417985591	287.921786609409	944.368921329159	95.999015095980	313.122681283685	1071.180895222650	43.697409962641	276.233263883510	1012.666234098692	1089.869253994849	115.219771815818	1201.336940373511	910.383772761994	150.894112075504	929.144823823039	1104.291359063767	721.850455131395	954.819775091939	848.697572064376	760.858214298574	
19	17.633000000000	806.888595255637	1009.914909469856	435.792461878714	1014.748682536320	1431.558167582076	258.321692158862	1102.214602536069	1360.459107826538	427.037386260317	1009.425664151763	1437.651654413463	594.569912549503	988.283764672323	1495.739546631949	414.607732319813	1027.024066688828	943.793118042754	569.889524233725	1033.574334742935	964.269809779606	292.324916740168	1093.432327125346	760.905078921660	543.265690488067	1040.127110937533	644.356544303402	616.321751848091	1125.335939832211	602.339513504454	536.100952324598	1153.045210615397	520.714823188771	551.237289735243	1050.191848098381	738.712709179151	324.355996667254	948.860098945323	636.935733690170	251.395028710099	1013.875053806501	548.507184380145	318.559257550281	1003.112384334664	481.538815767999	325.976192352161	973.944531052651	412.214788704109	314.322718153702	878.379970349989	304.687595514727	260.796619522020	919.389817174947	189.506855785507	330.707622388736	1134.282673876828	430.908293952921	563.776801965454	1078.641547784005	321.364896484968	632.651403710417	1139.585355588522	230.467741504540	578.602237472713	1036.739518706781	46.417322874309	559.560400329284	1203.752888569991	116.197622019043	590.569690765291	1124.179978454910	44.205115896985	629.627922935308	1328.060733411410	76.582870249243	612.281629421511	784.603275565392	38.278235497507	372.546461934492	853.980081346218	35.186069441389	287.920864747704	938.921584335475	95.957561823945	313.186062895966	1065.735503572294	43.557964272428	276.232531611158	1014.510520861053	1088.984455293516	118.802044941258	1203.393011621645	910.103404395183	156.045695598842	929.088934797685	1103.556827438274	723.584865146393	955.771589550345	847.745509265741	761.406416712794	
20	17.646500000000	808.928887211736	1009.212700045106	437.796859850379	1016.523722207687	1430.966679022211	261.186216682630	1103.643720745346	1359.915888406690	430.070677369981	1010.407193650150	1436.909924360408	597.454276303408	989.499754213635	1495.127517860546	417.464772558944	1028.721509060554	943.018685360560	572.442853571119	1036.367766197655	963.868860573710	294.584460335768	1092.793818593146	758.125541671463	546.181747783801	1037.121602295636	642.052110055469	618.185147575086	1121.913466308185	599.637393746474	537.829968002075	1148.142525627727	519.095068477180	552.114597292945	1050.120282145048	737.295235108674	326.566694169992	947.663116497201	636.622172280595	253.140487824873	1011.508502293081	547.401422019769	320.233158007210	1000.055756444460	480.563581697559	327.398317525132	970.569281669629	411.594993080394	315.492589720218	874.243494540048	304.797885875435	261.603079337199	914.436558497523	189.042630903394	331.066241897043	1131.635846353111	429.222965864283	565.011786776372	1077.847436235328	318.206174234726	633.148987235429	1141.087059476282	228.768272977436	579.005223458403	1042.051774531632	43.460978217684	558.904499587881	1208.112250838442	114.719421973453	590.246701834940	1129.256360712375	42.224705131042	629.240407930218	1332.872467145967	76.468597625706	612.252052986949	779.135471841837	38.092859951968	372.537868676704	848.525177495707	35.076702574618	287.931700023548	933.457804530102	95.885976540525	313.259638761238	1060.314391953698	43.394566741531	276.230495531050	1016.110429612499	1087.962700774564	122.672654235253	1205.020158825566	909.398131870104	161.156666333267	929.571627570019	1102.557666548352	725.422659486359	957.831964240132	846.526691144985	761.786219293837	
21	17.660000000000	811.173163125194	1008.292887937216	440.157619206866	1018.012619447023	1430.312258535018	264.232568909189	1104.991634205341	1359.417636217700	433.228515701261	1011.340099476702	1436.109412577654	600.539260283988	990.552736531444	1494.434915301443	420.530279817248	1030.766328888328	942.191753474365	575.143545163443	1039.158340390856	963.282247670782	297.115976983682	1093.024521208763	755.636883394183	549.127434465274	1035.047442117629	639.832428504709	619.866573237827	1119.647895051602	597.222528171346	539.560033332708	1144.100563851724	517.205955780109	553.054597087729	1050.438804955115	735.812996561343	328.876810762229	946.797411604742	636.185668666518	255.127399175091	1009.650679182830	546.189726337720	322.020891577624	997.577912004310	479.384708835757	328.919985278755	967.601369951736	410.822313853074	316.783787854125	870.312929254642	304.906671542478	262.537148673305	909.570076680654	188.477692358292	331.457288638877	1129.117238481498	427.247201024189	566.145863474241	1076.007661829400	315.349988726308	633.264957659525	1140.706839615052	226.900108273746	579.141728269253	1043.728741788721	41.734367938485	557.719873198850	1209.315266303427	112.753645933919	589.682879875151	1130.456027462809	40.751082956319	628.543799998812	1334.040041915743	74.653879132526	612.280147862215	773.647901431200	37.816052145056	372.527391096093	843.073549178546	34.886871376252	287.954649028607	927.988715430732	95.775385761736	313.337079894524	1054.928689118101	43.198582575777	276.220638287097	1017.425085663505	1086.815440056266	126.816035923384	1206.203363938588	908.290003567808	166.164391103353	930.583297490341	1101.321154458164	727.396260615812	960.975206508849	845.092430172154	762.056017915251	
